<svg xmlns="http://www.w3.org/2000/svg" width="880" height="362" viewBox="0 0 880 362">
  <defs>
    <style>
      .cls-1 {
        fill-rule: evenodd;
      }
    </style>
  </defs>
  <path fill="#fff" class="cls-1" d="M833.414,165.855q-2.148-9.183-6.926-12.791t-14.572-3.6h-6.807v67.421a5.751,5.751,0,0,0,4.182,6,16.721,16.721,0,0,0,3.284.647,37.022,37.022,0,0,0,4.716.295v3.864H780.028v-3.864q6.094,0,8.481-1.179,3.942-1.645,3.94-6.824V149.46h-9.59q-8.272,0-12.588,4.364-3.118,3.067-6.231,12.031h-3.478l2.389-20.5h71.778l2.268,20.5h-3.583ZM767.25,202.277h3.582l-1.074,25.178h-69.27v-3.864h1.432q11.226,0,11.228-8.444V157.083q0-4.923-3.7-6.8-2.631-1.29-8.123-1.293v-3.63h36.07v3.63q-5.857,0-8.242,1.176-3.584,1.764-3.582,6.815v56.976q0,9.636,14.211,9.635h7.048a17.678,17.678,0,0,0,14.33-6.476Q765.817,211.465,767.25,202.277ZM681.26,164.31v37.771q0,14.035-9.554,21.285-8.484,6.195-23.407,6.2-15.053,0-23.888-6.423-9.673-7.24-9.673-21.6V157.4q0-4.788-3.583-6.772a15.727,15.727,0,0,0-3.761-1.108,28.233,28.233,0,0,0-4.361-.293v-3.867H639.1v3.867h-0.957q-10.989,0-10.986,8.445v45.978q0,10.091,7.165,15.952,6.568,5.16,17.319,5.16,11.578,0,18.032-6.215t6.449-17.36v-40q0-6.448-2.625-9.149a8.077,8.077,0,0,0-3.467-2.112,18.483,18.483,0,0,0-5.611-.7v-3.867h28.664v3.867l-5.256,1.284Q681.261,152.616,681.26,164.31Zm-71.522,82.269v5.5h17.121v-5.5h9.027v5.5H655.5v8.088H635.886v3.882h-9.027v-3.882H609.738v3.882h-9.027v-3.882H580.789V252.08h19.922v-5.5h9.027Zm-20.973-62.56Q600,191.864,600,203.455t-6.747,18.732q-6.748,7.143-18.811,7.143-11.7,0-22.453-8.433l-2.747,7.26h-3.7V202.043h3.7q4.179,11.592,8.12,16.043,5.736,6.559,16.364,6.558a19.107,19.107,0,0,0,12.239-3.922q4.957-3.923,4.958-10.951,0-9.249-11.347-15.807l-21.018-10.893q-11.348-7.262-11.347-18.152,0-10.074,7.165-15.93,6.569-5.383,17.2-5.385a30.7,30.7,0,0,1,9.5,1.755,22.1,22.1,0,0,1,8.3,4.569l2.863-5.037h2.27l0.358,22.017H591.4a26.72,26.72,0,0,0-6.449-13.7,18.367,18.367,0,0,0-13.853-5.739,16.781,16.781,0,0,0-10.21,3.112,10.088,10.088,0,0,0-4.242,8.62q0,7.749,11.2,13.847Zm-120.549,43.67v-3.864q7.641,0,10.094-1.936t2.446-9.325V157.083q0-4.923-3.463-6.918-2.627-1.294-8.239-1.293v-3.513H529.6l2.509,20.028h-3.952q-4.077-10.188-5.393-11.595-3.236-4.217-11.98-4.215H493.177v32.2h9.853a9.591,9.591,0,0,0,6.174-2.629q2.013-2.269,3.681-9.082h3.583v27.989h-3.583v-0.81q0-6.958-4.209-9.512-3.123-1.857-10.813-1.858h-4.686v28.814q0,9.13,16.242,9.132,11.585,0,17.677-5.177t8-16.6h3.463l-1.793,25.646H468.216ZM391,48.853c-28.039-6.925-67.529-12.973-162.48,21.082-35.367,13.747-77.8,39.565-86.606,45.026,0,0,96.535-88.406,221.277-94.614,63.566-2.459,124.537,7.209,146.2,56.574,2.548,6.249,6.691,14.045,7.647,47.8H450.585S452.5,67.651,391,48.853ZM132.471,140.48a9.262,9.262,0,1,1,9.444-9.26A9.353,9.353,0,0,1,132.471,140.48Zm-8.514,9.8q-2.631-1.29-8.122-1.293v-3.63H151.9v3.63q-5.856,0-8.241,1.176-3.585,1.764-3.583,6.815v56.976q0,9.636,14.211,9.635h7.049a17.681,17.681,0,0,0,14.33-6.476q4.658-5.65,6.091-14.838h3.582l-1.074,25.178H115v-3.864h1.431q11.228,0,11.228-8.444V157.083Q127.659,152.16,123.957,150.282ZM110.6,205.556a19.325,19.325,0,0,1-8.123,16.277q-7.521,5.388-18.273,5.388H43v-3.864h2.151q10.39,0,10.39-8.406V155.646a5.472,5.472,0,0,0-4.06-5.6,13.341,13.341,0,0,0-3.344-.874,40.4,40.4,0,0,0-4.3-.179v-3.864H83.13a27.748,27.748,0,0,1,15.526,4.218q7.284,5.037,7.284,13.467,0,8.784-6.091,13.934Q95.433,180.5,85.161,182.6,110.6,186.817,110.6,205.556ZM87.285,178.268q5.275-3.865,5.28-13.466,0-15.462-14.882-15.459H67.962v32.321h4.68Q82.723,181.664,87.285,178.268ZM72.263,185.06h-4.3v29.812q0,8.485,12.182,8.485,8.242,0,12.659-5.739a17.047,17.047,0,0,0,2.867-5.739,27.836,27.836,0,0,0,.955-7.73q0-11-6.807-15.576Q84.2,185.063,72.263,185.06Zm180.3-33.02a8.079,8.079,0,0,0-3.466-2.112,18.488,18.488,0,0,0-5.611-.7v-3.867h28.663v3.867L266.9,150.51q-6.569,2.106-6.569,13.8v37.771q0,14.035-9.554,21.285-8.484,6.195-23.407,6.2-15.052,0-23.887-6.423-9.675-7.24-9.674-21.6V157.4q0-4.788-3.583-6.772a15.714,15.714,0,0,0-3.761-1.108,28.233,28.233,0,0,0-4.361-.293v-3.867h36.07v3.867h-0.958q-10.989,0-10.986,8.445v45.978q0,10.091,7.165,15.952,6.568,5.16,17.319,5.16,11.58,0,18.032-6.215t6.449-17.36v-40Q255.192,154.741,252.567,152.04Zm48.893,62.653q0,9.13,16.242,9.132,11.585,0,17.677-5.177t8-16.6h3.464l-1.793,25.646H276.5v-3.864q7.642,0,10.094-1.936t2.446-9.325V157.083q0-4.923-3.463-6.918-2.627-1.294-8.239-1.293v-3.513h60.551l2.509,20.028h-3.953q-4.076-10.188-5.393-11.595-3.235-4.217-11.979-4.215H301.46v32.2h9.853a9.6,9.6,0,0,0,6.175-2.629q2.013-2.269,3.681-9.082h3.582v27.989h-3.582v-0.81q0-6.958-4.209-9.512-3.123-1.857-10.814-1.858H301.46v28.814Zm138.692-16.751,11.705,16.982q6.448,9.135,12.418,9.135h1.435v3.63H446.837Q441.1,222.736,434.416,212l-10.539-16.962q-3.217-4.465-6.914-5.642a45.216,45.216,0,0,0-9.063-.588h-2.86v26.647q0,5.3,3.821,7.306a16.752,16.752,0,0,0,3.4.945,31.333,31.333,0,0,0,5.315.354v3.63H380.2v-3.63q6.327,0,8.6-1.293,3.816-1.767,3.821-7.181V157.226a7.434,7.434,0,0,0-3.7-6.824,10.763,10.763,0,0,0-4.3-1.176q-2.626-.237-3.7-0.237v-3.63h36.905q11.7,0,19.347,4.68,9.195,5.616,9.2,16.491a18.058,18.058,0,0,1-6.569,14.151q-5.731,4.914-14.81,6.316Q432.39,188.171,440.152,197.942Zm-2.134-32.132a18.412,18.412,0,1,0-17.55,18.857A18.272,18.272,0,0,0,438.018,165.81ZM242.427,315.693c48.989-1.406,120.441-13.825,190.46-71.938h58.786s-72.292,81.477-202.654,95.2c-55.652,6.79-90.079-3.616-121-24.762-11.2-7.661-36.712-28.263-40.774-60.366C130.589,258.752,148.273,315.225,242.427,315.693Zm254.988-56.172q-4.05-4.2-5.915-6.147l6.848-5.824q2.175,2.268,6.226,6.147,3.735,3.884,5.292,5.5l-6.848,6.471Q501.151,263.727,497.415,259.521Zm5.291,15.53q3.736,3.882,5.292,5.5l-7.159,5.823L489.632,274.4l6.537-5.823Q498.344,270.847,502.706,275.051Zm0,17.794a30.311,30.311,0,0,1,4.358,1.618q-0.933,2.592-.622,1.941-5.3,18.441-7.471,27.177l-8.716-2.912q4.043-13.588,8.093-29.118A38.347,38.347,0,0,1,502.706,292.845Zm53.23-10.353q-6.231-5.5-16.809-13.265l5.6-5.5q3.108,1.941,8.716,5.823t8.716,6.148Zm-21.479-13.265q-10.272,8.417-17.432,13.265-0.313-.32-0.933-0.971a36.024,36.024,0,0,0-4.67-5.5,116.787,116.787,0,0,0,17.121-12.294Zm27.393-2.588h-8.716V259.2H521.072v7.442h-9.027V251.432H561.85v15.207ZM510.8,293.492V285.4h21.478v-9.059h9.028V285.4h22.1v8.088H544.418q6.223,10.357,21.168,17.471l-5.292,7.441q-13.074-7.764-18.988-17.147v22.971h-9.028V301.257q-6.851,10.357-20.544,18.118l-5.292-7.442q15.247-8.409,22.724-18.441H510.8Zm75.281-25.883h8.4v23.3h-8.4v-23.3Zm25.214-1.941v25.883h-8.716V265.668h8.716Zm42.957,13.265h-26.77a128.775,128.775,0,0,1-8.094,12.618,13.776,13.776,0,0,1-1.556-.971q-1.867-1.615-5.6-4.206a58.521,58.521,0,0,0,11.206-21.03l9.027,0.971a47.955,47.955,0,0,1-1.868,4.53h23.658v8.088Zm-7.16,9.059-5.6,5.824q-6.851-5.5-12.451-9.383l5.292-5.5q2.487,1.623,7.159,4.853A43.557,43.557,0,0,0,647.092,287.992Zm-58.832,6.471h60.078V314.2H655.5v7.442H580.789V314.2h7.471V294.463ZM630.283,314.2h8.4V302.227h-8.4V314.2Zm-16.187,0h8.094V302.227H614.1V314.2Zm-16.5,0H606V302.227H597.6V314.2Zm101.429-13.265H671.945v-8.088h32.374v-6.471H678.794V250.462h60.077v35.912H713.346v6.471h32.685v8.088h-27.7q9.645,8.736,28.327,12.3-2.5,4.2-4.358,8.088-19.611-5.5-28.95-14.883V323.9h-9.027V306.11q-8.1,8.734-28.638,16.5a16.37,16.37,0,0,0-.934-1.618,25.516,25.516,0,0,0-3.735-6.147Q690.308,309.347,699.027,300.933Zm5.292-42.706h-16.5v6.794h16.5v-6.794Zm0,13.588h-16.5v6.794h16.5v-6.794Zm9.027,6.794h16.5v-6.794h-16.5v6.794Zm0-13.588h16.5v-6.794h-16.5v6.794Zm80.573,6.471,5.6,2.911-4.047,7.442q-8.718-5.172-16.809-9.059l3.735-6.794Q786.444,267.613,793.919,271.492Zm9.961-25.236q0.306,0.97.934,2.912a47.971,47.971,0,0,0,2.179,5.823h28.015v18.442h-9.649V263.4H773.686v10.03h-9.339V254.991h31.44a46.943,46.943,0,0,0-3.113-7.441Zm-32.685,38.5,4.047-6.8q7.47,3.238,17.432,8.736l-4.047,6.794h12.14a12.68,12.68,0,0,0,.623-3.882,110.274,110.274,0,0,0,2.179-22.648h9.65a186.328,186.328,0,0,1-1.868,23.3l-0.623,3.235h25.837v8.735H808.549a8.4,8.4,0,0,1-.934,1.942q15.563,6.476,27.705,11l-4.669,8.412c-1.664-.865-2.179-1.082-1.557-0.647q-16.5-7.766-26.148-11.648-8.1,8.736-34.552,13.265-0.935-1.623-2.491-4.853t-2.49-4.853q29.569-2.912,34.241-12.618H763.1v-8.735h23.657Q776.793,287.669,771.2,284.757Z"/>
</svg>
